<svg width="39" height="39" viewBox="0 0 39 39" fill="none" xmlns="http://www.w3.org/2000/svg">
<path d="M19.5 39C30.2696 39 39 30.2696 39 19.5C39 8.73045 30.2696 0 19.5 0C8.73045 0 0 8.73045 0 19.5C0 30.2696 8.73045 39 19.5 39Z" fill="#0386A7"/>
<path fill-rule="evenodd" clip-rule="evenodd" d="M19.4998 15.6778C17.3925 15.6778 15.6777 17.3925 15.6777 19.4998C15.6777 21.6075 17.3925 23.3222 19.4997 23.3222C21.6075 23.3222 23.3222 21.6075 23.3222 19.4998C23.3222 17.3925 21.6074 15.6778 19.4998 15.6778ZM20.8131 21.3859C20.6528 21.2303 20.6485 20.974 20.8041 20.8131C21.5013 20.0926 21.5013 18.9638 20.8041 18.2427C20.0947 17.5107 18.92 17.49 18.1858 18.1968C18.0245 18.3519 17.7681 18.3467 17.613 18.1858C17.4579 18.0243 17.4627 17.7681 17.624 17.613C18.679 16.5976 20.3668 16.6272 21.3859 17.6794C22.3891 18.7159 22.3891 20.34 21.3859 21.377C21.3068 21.4587 21.2007 21.4999 21.0948 21.4998C20.9935 21.4998 20.8916 21.4624 20.8131 21.3859Z" fill="white"/>
<path fill-rule="evenodd" clip-rule="evenodd" d="M19.4998 13.8965C16.4104 13.8965 13.8964 16.4104 13.8964 19.4998C13.8964 22.5896 16.4103 25.103 19.4997 25.103C22.5895 25.103 25.1028 22.5896 25.1028 19.4998C25.1029 16.4104 22.5895 13.8965 19.4998 13.8965ZM14.8675 19.4998C14.8676 16.9457 16.9457 14.8676 19.4997 14.8676C22.0542 14.8676 24.1324 16.9458 24.1324 19.4998C24.1324 22.0543 22.0542 24.1324 19.4998 24.1324C16.9458 24.1324 14.8675 22.0543 14.8675 19.4998Z" fill="white"/>
<path fill-rule="evenodd" clip-rule="evenodd" d="M13.3046 12.7319L15.2623 14.6895C16.3932 13.6922 17.877 13.0863 19.4997 13.0863C21.1225 13.0863 22.6064 13.6922 23.7372 14.6894L25.6952 12.7318C25.8536 12.5735 26.1098 12.5736 26.268 12.7318C26.4262 12.8901 26.4262 13.1464 26.268 13.3046L24.31 15.2622C25.3073 16.3931 25.9131 17.8769 25.9131 19.4997C25.9131 21.1226 25.3073 22.6064 24.3101 23.7373L26.2681 25.6952C26.4263 25.8534 26.4263 26.1098 26.2681 26.268C26.189 26.3472 26.0856 26.3867 25.9818 26.3867C25.8778 26.3867 25.7744 26.3472 25.6952 26.268L23.7373 24.3101C22.6065 25.3073 21.1226 25.9131 19.4998 25.9131C17.877 25.9131 16.3932 25.3073 15.2622 24.3099L13.3047 26.268C13.2255 26.3472 13.1215 26.3867 13.0183 26.3867C12.9144 26.3867 12.8109 26.3472 12.7317 26.268C12.5736 26.1098 12.5735 25.8535 12.7317 25.6952L14.6893 23.7372C13.692 22.6064 13.0862 21.1225 13.0862 19.4997C13.0862 17.877 13.6921 16.3932 14.6894 15.2623L12.7319 13.3047C12.5737 13.1464 12.5736 12.8901 12.7318 12.7319C12.8901 12.5736 13.1464 12.5737 13.3046 12.7319ZM12.9929 11.7825C12.5588 12.1517 12.1517 12.5589 11.7824 12.993C11.6558 13.1423 11.4406 13.1792 11.2713 13.0816L9.34505 11.9707L7.9014 14.4704L9.82767 15.5812C9.99806 15.6793 10.0729 15.8861 10.0059 16.0708C9.81597 16.5924 9.66615 17.1489 9.56117 17.7244C9.52591 17.9164 9.35862 18.0561 9.16297 18.0561H6.94143V20.9434H9.16305C9.35984 20.9434 9.52851 21.0853 9.56174 21.2794C9.65624 21.8232 9.80541 22.3786 10.0059 22.9293C10.073 23.1139 9.99797 23.3207 9.82759 23.4188L7.90132 24.5296L9.34497 27.0293L11.2712 25.9184C11.4406 25.8203 11.6558 25.8577 11.7823 26.007C12.1516 26.441 12.5587 26.8482 12.9928 27.2175C13.1422 27.3441 13.1791 27.5588 13.0815 27.7287L11.9707 29.6549L14.4703 31.0986L15.5812 29.1724C15.6793 29.002 15.886 28.9271 16.0706 28.9941C16.5923 29.184 17.1487 29.3333 17.7236 29.4388C17.9163 29.4736 18.0559 29.6414 18.0559 29.837V32.0587H20.9432V29.837C20.9432 29.6398 21.0851 29.4715 21.2792 29.4378C21.8231 29.3438 22.3784 29.1946 22.9292 28.9941C23.1138 28.9266 23.3205 29.002 23.4186 29.1724L24.5295 31.0981L27.0291 29.655L25.9183 27.7288C25.8204 27.5594 25.8577 27.3443 26.0069 27.2176C26.4411 26.8483 26.8482 26.4412 27.2174 26.0071C27.3441 25.8578 27.5587 25.8204 27.7285 25.9185L29.6549 27.0294L31.098 24.5297L29.1722 23.4188C29.0019 23.3202 28.9269 23.114 28.9939 22.9294C29.1839 22.4072 29.333 21.8513 29.4385 21.2758C29.4734 21.0833 29.6411 20.9435 29.8367 20.9435H32.0584V18.0562H29.8367C29.6394 18.0562 29.4712 17.9148 29.4374 17.7202C29.3436 17.177 29.1942 16.6216 28.9937 16.0708C28.9267 15.8857 29.0016 15.6795 29.172 15.5813L31.0979 14.4705L29.6547 11.9708L27.7279 13.0817C27.5585 13.1792 27.3438 13.1424 27.2172 12.9931C26.8481 12.559 26.4408 12.1518 26.0067 11.7825C25.8574 11.656 25.82 11.4407 25.918 11.2715L27.0289 9.34521L24.5288 7.90156L23.4184 9.82784C23.3198 9.99765 23.1135 10.0731 22.9289 10.0061C22.4068 9.81622 21.8508 9.66696 21.2753 9.56142C21.0828 9.52664 20.943 9.35886 20.943 9.16321V6.94151H18.0557V9.16321C18.0557 9.35992 17.9143 9.52876 17.7196 9.56199C17.1759 9.6564 16.621 9.80566 16.0703 10.0061C15.8851 10.073 15.6789 9.99822 15.5807 9.82784L14.47 7.90156L11.9704 9.34521L13.0812 11.2715C13.1792 11.4406 13.1422 11.6559 12.9929 11.7825Z" fill="white"/>
</svg>
